HIERARCHY
ROOT Hips
{
	OFFSET 0.000000 1.471914 24.280096
	CHANNELS 6 Xposition Yposition Zposition Xrotation Yrotation Zrotation
	JOINT Spine
	{
		OFFSET 0.000000 0.900110 1.860670
		CHANNELS 6 Xposition Yposition Zposition Xrotation Yrotation Zrotation
		JOINT Spine1
		{
			OFFSET 0.000000 0.400320 2.270309
			CHANNELS 6 Xposition Yposition Zposition Xrotation Yrotation Zrotation
			JOINT Spine2
			{
				OFFSET 0.000000 0.200920 2.296560
				CHANNELS 6 Xposition Yposition Zposition Xrotation Yrotation Zrotation
				JOINT Spine3
				{
					OFFSET 0.000000 0.000000 2.305330
					CHANNELS 6 Xposition Yposition Zposition Xrotation Yrotation Zrotation
					JOINT Neck
					{
						OFFSET 0.000000 -0.864490 6.051487
						CHANNELS 6 Xposition Yposition Zposition Xrotation Yrotation Zrotation
						JOINT Head
						{
							OFFSET 0.000000 -0.550429 3.121674
							CHANNELS 6 Xposition Yposition Zposition Xrotation Yrotation Zrotation
							End Site
							{
								OFFSET 0.000000 0.000000 3.731750
							}
						}
					}
					JOINT RightShoulder
					{
						OFFSET -0.788280 -1.313800 4.256718
						CHANNELS 6 Xposition Yposition Zposition Xrotation Yrotation Zrotation
						JOINT RightArm
						{
							OFFSET -3.915130 0.000000 0.000000
							CHANNELS 6 Xposition Yposition Zposition Xrotation Yrotation Zrotation
							JOINT RightForeArm
							{
								OFFSET -6.914910 0.000000 0.000000
								CHANNELS 6 Xposition Yposition Zposition Xrotation Yrotation Zrotation
								JOINT RightHand
								{
									OFFSET -6.096219 0.000000 0.000000
									CHANNELS 6 Xposition Yposition Zposition Xrotation Yrotation Zrotation
									JOINT RightHandEnd
									{
										OFFSET -1.749950 0.000000 0.000000
										CHANNELS 6 Xposition Yposition Zposition Xrotation Yrotation Zrotation
										End Site
										{
											OFFSET -1.749950 0.000000 0.000000
										}
									}
									JOINT RightHandThumb1
									{
										OFFSET -0.699980 -1.166630 -0.466648
										CHANNELS 6 Xposition Yposition Zposition Xrotation Yrotation Zrotation
										End Site
										{
											OFFSET -1.690319 -0.452920 0.000000
										}
									}
								}
							}
						}
					}
					JOINT LeftShoulder
					{
						OFFSET 0.788280 -1.313800 4.256718
						CHANNELS 6 Xposition Yposition Zposition Xrotation Yrotation Zrotation
						JOINT LeftArm
						{
							OFFSET 3.915130 0.000000 0.000000
							CHANNELS 6 Xposition Yposition Zposition Xrotation Yrotation Zrotation
							JOINT LeftForeArm
							{
								OFFSET 6.914910 0.000000 0.000000
								CHANNELS 6 Xposition Yposition Zposition Xrotation Yrotation Zrotation
								JOINT LeftHand
								{
									OFFSET 6.096219 0.000000 0.000000
									CHANNELS 6 Xposition Yposition Zposition Xrotation Yrotation Zrotation
									JOINT LeftHandEnd
									{
										OFFSET 1.749950 0.000000 0.000000
										CHANNELS 6 Xposition Yposition Zposition Xrotation Yrotation Zrotation
										End Site
										{
											OFFSET 1.749950 0.000000 0.000000
										}
									}
									JOINT LeftHandThumb1
									{
										OFFSET 0.699980 -1.166630 -0.466648
										CHANNELS 6 Xposition Yposition Zposition Xrotation Yrotation Zrotation
										End Site
										{
											OFFSET 1.690319 -0.452920 0.000000
										}
									}
								}
							}
						}
					}
				}
			}
		}
	}
	JOINT RightUpLeg
	{
		OFFSET -2.338570 -0.252550 -0.551512
		CHANNELS 6 Xposition Yposition Zposition Xrotation Yrotation Zrotation
		JOINT RightLeg
		{
			OFFSET 0.000000 0.000000 -10.744959
			CHANNELS 6 Xposition Yposition Zposition Xrotation Yrotation Zrotation
			JOINT RightFoot
			{
				OFFSET 0.000000 -0.000001 -10.930849
				CHANNELS 6 Xposition Yposition Zposition Xrotation Yrotation Zrotation
				JOINT RightToeBase
				{
					OFFSET 0.000000 -4.087269 -1.487650
					CHANNELS 6 Xposition Yposition Zposition Xrotation Yrotation Zrotation
					End Site
					{
						OFFSET 0.000000 -1.891870 0.000000
					}
				}
			}
		}
	}
	JOINT LeftUpLeg
	{
		OFFSET 2.338570 -0.252550 -0.551512
		CHANNELS 6 Xposition Yposition Zposition Xrotation Yrotation Zrotation
		JOINT LeftLeg
		{
			OFFSET 0.000000 0.000000 -10.744959
			CHANNELS 6 Xposition Yposition Zposition Xrotation Yrotation Zrotation
			JOINT LeftFoot
			{
				OFFSET 0.000000 -0.000001 -10.930849
				CHANNELS 6 Xposition Yposition Zposition Xrotation Yrotation Zrotation
				JOINT LeftToeBase
				{
					OFFSET 0.000000 -4.087269 -1.487650
					CHANNELS 6 Xposition Yposition Zposition Xrotation Yrotation Zrotation
					End Site
					{
						OFFSET 0.000000 -1.891870 0.000000
					}
				}
			}
		}
	}
}
MOTION
Frames: 4
Frame Time: 0.041667
0.000032 26.560381 40.145538 -8.831278 2.827318 -19.322047 -0.000015 0.900101 1.860696 7.396314 -1.738410 -0.495940 0.000003 0.400278 2.270315 -0.000003 -0.000002 -0.000001 0.000018 0.200872 2.296543 0.000002 -0.000000 0.000006 0.000027 -0.000007 2.305318 -0.000050 0.000002 -0.854178 -0.000008 -0.864470 6.051458 20.041966 -2.615294 182.810983 0.000014 -0.550449 3.121719 0.000002 0.000002 -0.000006 -0.788280 -1.313742 4.256761 -226.967418 15.525117 -37.403291 -3.915071 -0.000002 -0.000034 0.000005 0.000001 0.000000 -6.914884 0.000004 0.000002 0.000013 0.000005 -59.795280 -6.096190 -0.000006 0.000011 -0.000095 -0.000023 -0.000049 -1.749923 -0.000022 0.000021 -0.000007 0.000001 0.000001 -0.699987 -1.166632 -0.466645 0.000003 0.000007 0.000004 0.788263 -1.313779 4.256727 -229.509355 -4.530322 31.289465 3.915169 0.000036 -0.000023 0.000003 -0.000001 0.000003 6.914907 -0.000024 -0.000002 0.000010 -0.000004 52.741000 6.096206 0.000073 0.000001 -0.000050 -0.000044 0.000033 1.749928 -0.000001 0.000021 -0.000005 0.000000 0.000003 0.699944 -1.166609 -0.466638 0.000021 -0.000008 -0.000019 -2.338571 -0.252532 -0.551519 15.575196 -0.029554 -1.027634 0.000018 -0.000018 -10.744967 8.345158 3.224471 -0.537663 -0.000020 0.000056 -10.930838 0.000017 -0.000003 0.000003 0.000001 -4.087268 -1.487642 0.000005 0.000003 -0.000005 2.338574 -0.252527 -0.551456 14.370981 -0.977906 -0.958716 -0.000006 -0.000038 -10.744926 7.588262 0.890416 -0.623126 -0.000010 0.000003 -10.930873 0.000046 -0.000004 -0.000001 -0.000012 -4.087245 -1.487652 0.000002 -0.000000 -0.000005 
0.000034 26.560385 40.145527 -9.459727 2.851581 -18.837704 -0.000016 0.900100 1.860705 7.829946 -1.624245 -0.544713 0.000001 0.400273 2.270312 -0.000005 -0.000002 0.000001 0.000017 0.200875 2.296536 0.000002 -0.000000 0.000002 0.000027 -0.000007 2.305310 -0.000050 0.000004 -0.565384 -0.000011 -0.864467 6.051470 19.462180 -1.806999 181.473031 0.000014 -0.550444 3.121719 -0.000003 -0.000000 -0.000004 -0.788283 -1.313738 4.256766 -225.999540 16.844529 -36.086399 -3.915073 -0.000003 -0.000034 0.000004 -0.000000 -0.000003 -6.914886 0.000005 0.000000 0.000006 0.000001 -62.993236 -6.096200 -0.000008 0.000022 -0.000089 -0.000026 -0.000050 -1.749920 -0.000019 0.000025 -0.000004 0.000000 0.000003 -0.699982 -1.166627 -0.466654 0.000003 -0.000000 0.000007 0.788262 -1.313780 4.256735 -230.003834 -6.586443 30.357141 3.915168 0.000034 -0.000019 0.000002 -0.000001 0.000002 6.914907 -0.000024 -0.000006 0.000011 -0.000002 55.181061 6.096206 0.000071 -0.000004 -0.000055 -0.000043 0.000037 1.749938 0.000007 0.000027 0.000002 -0.000002 0.000003 0.699950 -1.166603 -0.466627 0.000025 -0.000011 -0.000020 -2.338573 -0.252536 -0.551509 16.159659 0.075313 -1.105819 0.000018 -0.000015 -10.744968 8.641302 3.074973 -0.560247 -0.000020 0.000064 -10.930836 0.000017 -0.000004 0.000002 0.000001 -4.087264 -1.487644 0.000000 0.000001 -0.000003 2.338573 -0.252530 -0.551452 14.874731 -0.833128 -1.028812 -0.000007 -0.000037 -10.744918 7.670219 0.595233 -0.628302 -0.000011 0.000006 -10.930875 0.000048 -0.000004 0.000000 -0.000013 -4.087236 -1.487648 0.000000 -0.000000 -0.000004 
0.000036 26.560383 40.145496 -9.991216 3.004070 -18.394316 -0.000017 0.900099 1.860703 8.437681 -1.548223 -0.607335 0.000002 0.400274 2.270314 -0.000006 -0.000002 -0.000001 0.000018 0.200871 2.296540 0.000003 -0.000000 0.000007 0.000027 -0.000010 2.305314 -0.000050 0.000001 -0.161477 -0.000009 -0.864468 6.051469 18.305078 -1.904733 181.075036 0.000014 -0.550451 3.121719 -0.000001 0.000000 -0.000004 -0.788281 -1.313740 4.256767 -222.787561 16.497400 -33.905541 -3.915074 -0.000004 -0.000038 0.000002 0.000001 -0.000002 -6.914883 0.000006 0.000008 0.000005 -0.000008 -69.706411 -6.096196 -0.000008 0.000019 -0.000096 -0.000025 -0.000048 -1.749926 -0.000010 0.000021 -0.000004 0.000005 0.000003 -0.699984 -1.166620 -0.466654 0.000005 0.000005 0.000006 0.788262 -1.313774 4.256733 -229.430808 -8.344487 28.449205 3.915169 0.000029 -0.000031 -0.000000 0.000002 0.000001 6.914907 -0.000023 -0.000008 0.000003 0.000006 61.406215 6.096207 0.000071 -0.000004 -0.000053 -0.000044 0.000034 1.749926 -0.000001 0.000022 0.000001 0.000001 0.000004 0.699937 -1.166610 -0.466632 0.000030 -0.000007 -0.000020 -2.338573 -0.252535 -0.551508 16.757922 -0.119435 -1.186452 0.000016 -0.000015 -10.744969 8.491673 3.418442 -0.597311 -0.000021 0.000057 -10.930834 0.000017 -0.000004 0.000003 0.000002 -4.087269 -1.487643 0.000002 0.000003 -0.000006 2.338573 -0.252532 -0.551447 15.278650 -0.887172 -1.093232 -0.000006 -0.000037 -10.744926 7.825764 0.393140 -0.665985 -0.000012 0.000007 -10.930873 0.000048 -0.000002 -0.000001 -0.000013 -4.087240 -1.487650 -0.000001 -0.000000 -0.000000 
0.000047 26.560385 40.145481 -10.732898 3.442648 -17.740658 -0.000017 0.900100 1.860703 9.368348 -1.572259 -0.652222 0.000000 0.400278 2.270310 -0.000003 -0.000002 0.000003 0.000018 0.200873 2.296539 0.000002 -0.000000 0.000004 0.000027 -0.000010 2.305314 -0.000051 0.000001 -0.146693 -0.000010 -0.864467 6.051475 16.309413 -2.695986 181.075937 0.000013 -0.550450 3.121719 -0.000001 -0.000001 -0.000003 -0.788280 -1.313738 4.256768 -219.735409 17.992711 -30.121756 -3.915074 -0.000006 -0.000042 -0.000003 0.000002 -0.000002 -6.914887 0.000002 -0.000006 -0.000005 -0.000014 -77.268489 -6.096200 -0.000007 0.000014 -0.000096 -0.000023 -0.000049 -1.749928 -0.000015 0.000022 -0.000002 0.000002 -0.000002 -0.699986 -1.166625 -0.466650 0.000006 0.000003 0.000001 0.788264 -1.313775 4.256739 -227.500392 -10.599167 26.342858 3.915170 0.000027 -0.000027 -0.000001 0.000000 0.000007 6.914909 -0.000028 -0.000003 -0.000005 0.000016 69.584833 6.096206 0.000070 -0.000008 -0.000051 -0.000042 0.000032 1.749928 0.000006 0.000027 -0.000002 0.000001 0.000000 0.699943 -1.166604 -0.466620 0.000026 -0.000004 -0.000025 -2.338573 -0.252535 -0.551512 17.378899 -0.692725 -1.190679 0.000017 -0.000012 -10.744968 8.965050 3.740842 -0.697965 -0.000020 0.000059 -10.930840 0.000019 -0.000005 0.000002 -0.000001 -4.087267 -1.487641 -0.000001 0.000001 -0.000002 2.338573 -0.252531 -0.551447 16.306817 -1.246504 -1.128295 -0.000006 -0.000036 -10.744924 7.816151 0.312788 -0.694412 -0.000011 0.000003 -10.930873 0.000046 -0.000004 0.000003 -0.000012 -4.087241 -1.487649 0.000003 0.000000 -0.000005 
